<svg width="33" height="24" viewBox="0 0 33 24" fill="none" xmlns="http://www.w3.org/2000/svg" style="opacity: 1; transform: none; stroke-linecap: round;"><path d="M0.0847168 5.3832V3.01857C2.50231 1.02367 5.65135 -0.363579 8.86162 0.084392C11.2581 0.375096 13.2971 1.5696 15.3343 2.76309C16.3354 3.34957 17.3364 3.93597 18.3789 4.41457C22.5667 6.46697 27.3195 8.57708 32.0847 7.43858V9.39551C26.013 10.2539 20.2637 7.48881 15.1081 4.67416C14.722 4.46078 14.3367 4.23635 13.9495 4.01087C12.1225 2.94661 10.2546 1.85858 8.07764 1.79934C4.97907 1.54396 2.14163 3.24357 0.0847168 5.3832Z" fill="currentColor"></path><path d="M32.0847 23.8301C29.9657 24.0882 27.792 24.0908 25.7128 23.5662C21.0315 22.4671 16.7744 20.1391 12.6719 17.742C10.6094 16.5242 8.08609 15.8641 5.70046 16.4496C3.50567 16.9402 1.62917 18.2768 0.0847168 19.8384V17.5108C1.74676 16.1314 3.6913 15.0194 5.85776 14.6463L5.85494 14.6435C8.48225 14.0939 11.2191 14.8755 13.4923 16.19C16.9401 18.1839 20.4526 20.1529 24.2797 21.368C26.7835 22.1571 29.4822 22.541 32.0847 21.9885V23.8301Z" fill="currentColor"></path><path d="M32.0847 16.566V14.7578C27.2261 15.7556 22.4524 13.6751 18.2046 11.5699C17.2213 11.1077 16.2683 10.5484 15.3136 9.98796C13.0735 8.67315 10.8234 7.35249 8.14791 7.26729V7.26177C5.16235 7.04747 2.34368 8.41297 0.0847168 10.238V12.6333C1.75099 10.9404 3.81096 9.46608 6.23709 9.12584C8.43447 8.77236 10.6881 9.34677 12.5763 10.4569C16.5215 12.7629 20.5846 14.997 25.044 16.1817C27.334 16.7918 29.7409 16.9616 32.0847 16.566Z" fill="currentColor"></path></svg>